{
	"asset":{
		"generator":"Khronos glTF Blender I/O v5.0.21",
		"version":"2.0"
	},
	"scene":0,
	"scenes":[
		{
			"name":"Scene",
			"nodes":[
				0
			]
		}
	],
	"nodes":[
		{
			"mesh":0,
			"name":"Grid",
			"translation":[
				-0.004647731781005859,
				0.33657342195510864,
				-0.15559345483779907
			]
		}
	],
	"meshes":[
		{
			"name":"Grid.003",
			"primitives":[
				{
					"attributes":{
						"POSITION":0,
						"NORMAL":1,
						"TEXCOORD_0":2
					},
					"indices":3
				}
			]
		}
	],
	"accessors":[
		{
			"bufferView":0,
			"componentType":5126,
			"count":23288,
			"max":[
				50,
				20.061410903930664,
				50
			],
			"min":[
				-50,
				-0.5,
				-50
			],
			"type":"VEC3"
		},
		{
			"bufferView":1,
			"componentType":5126,
			"count":23288,
			"type":"VEC3"
		},
		{
			"bufferView":2,
			"componentType":5126,
			"count":23288,
			"type":"VEC2"
		},
		{
			"bufferView":3,
			"componentType":5123,
			"count":125052,
			"type":"SCALAR"
		}
	],
	"bufferViews":[
		{
			"buffer":0,
			"byteLength":279456,
			"byteOffset":0,
			"target":34962
		},
		{
			"buffer":0,
			"byteLength":279456,
			"byteOffset":279456,
			"target":34962
		},
		{
			"buffer":0,
			"byteLength":186304,
			"byteOffset":558912,
			"target":34962
		},
		{
			"buffer":0,
			"byteLength":250104,
			"byteOffset":745216,
			"target":34963
		}
	],
	"buffers":[
		{
			"byteLength":995320,
			"uri":"terrain.bin"
		}
	]
}
