{
	"asset":{
		"generator":"Khronos glTF Blender I/O v5.0.21",
		"version":"2.0"
	},
	"scene":0,
	"scenes":[
		{
			"name":"Scene",
			"nodes":[
				0
			]
		}
	],
	"nodes":[
		{
			"mesh":0,
			"name":"Grid"
		}
	],
	"meshes":[
		{
			"name":"Grid.003",
			"primitives":[
				{
					"attributes":{
						"POSITION":0,
						"NORMAL":1,
						"TEXCOORD_0":2
					},
					"indices":3
				}
			]
		}
	],
	"accessors":[
		{
			"bufferView":0,
			"componentType":5126,
			"count":23268,
			"max":[
				50,
				20.061410903930664,
				50
			],
			"min":[
				-50,
				-0.5,
				-50
			],
			"type":"VEC3"
		},
		{
			"bufferView":1,
			"componentType":5126,
			"count":23268,
			"type":"VEC3"
		},
		{
			"bufferView":2,
			"componentType":5126,
			"count":23268,
			"type":"VEC2"
		},
		{
			"bufferView":3,
			"componentType":5123,
			"count":125028,
			"type":"SCALAR"
		}
	],
	"bufferViews":[
		{
			"buffer":0,
			"byteLength":279216,
			"byteOffset":0,
			"target":34962
		},
		{
			"buffer":0,
			"byteLength":279216,
			"byteOffset":279216,
			"target":34962
		},
		{
			"buffer":0,
			"byteLength":186144,
			"byteOffset":558432,
			"target":34962
		},
		{
			"buffer":0,
			"byteLength":250056,
			"byteOffset":744576,
			"target":34963
		}
	],
	"buffers":[
		{
			"byteLength":994632,
			"uri":"terrain.bin"
		}
	]
}
